<mxfile host="app.diagrams.net" modified="2024-05-15T05:12:16.557Z" agent="Mozilla/5.0 (Windows NT 10.0; Win64; x64) AppleWebKit/537.36 (KHTML, like Gecko) Chrome/124.0.0.0 Safari/537.36 Edg/124.0.0.0" etag="MjdCVeZUZOpPACIr6aZq" version="24.4.0" type="device">
  <diagram name="PÃ¡gina-1" id="K6eGdVi_4k7LpXyNPOmA">
    <mxGraphModel dx="2213" dy="785" grid="1" gridSize="10" guides="1" tooltips="1" connect="1" arrows="1" fold="1" page="1" pageScale="1" pageWidth="827" pageHeight="1169" math="0" shadow="0">
      <root>
        <mxCell id="0" />
        <mxCell id="1" parent="0" />
        <mxCell id="XioeLFv9S41CHHq93Qgn-2" value="" style="rounded=1;arcSize=10;dashed=1;strokeColor=#F59D56;fillColor=none;gradientColor=none;dashPattern=8 4;strokeWidth=2;" vertex="1" parent="1">
          <mxGeometry x="-20" y="75" width="910" height="530" as="geometry" />
        </mxCell>
        <mxCell id="XioeLFv9S41CHHq93Qgn-4" style="edgeStyle=orthogonalEdgeStyle;rounded=0;orthogonalLoop=1;jettySize=auto;html=1;" edge="1" parent="1" source="XioeLFv9S41CHHq93Qgn-1" target="XioeLFv9S41CHHq93Qgn-3">
          <mxGeometry relative="1" as="geometry" />
        </mxCell>
        <mxCell id="XioeLFv9S41CHHq93Qgn-1" value="" style="sketch=0;aspect=fixed;pointerEvents=1;shadow=0;dashed=0;html=1;strokeColor=none;labelPosition=center;verticalLabelPosition=bottom;verticalAlign=top;align=center;fillColor=#00188D;shape=mxgraph.mscae.enterprise.client_application" vertex="1" parent="1">
          <mxGeometry x="-150" y="340" width="50" height="32" as="geometry" />
        </mxCell>
        <mxCell id="XioeLFv9S41CHHq93Qgn-6" style="edgeStyle=orthogonalEdgeStyle;rounded=0;orthogonalLoop=1;jettySize=auto;html=1;exitX=1;exitY=0.5;exitDx=0;exitDy=0;exitPerimeter=0;" edge="1" parent="1" source="XioeLFv9S41CHHq93Qgn-3" target="XioeLFv9S41CHHq93Qgn-5">
          <mxGeometry relative="1" as="geometry" />
        </mxCell>
        <mxCell id="XioeLFv9S41CHHq93Qgn-3" value="" style="outlineConnect=0;dashed=0;verticalLabelPosition=bottom;verticalAlign=top;align=center;html=1;shape=mxgraph.aws3.application_load_balancer;fillColor=#F58536;gradientColor=none;" vertex="1" parent="1">
          <mxGeometry x="20" y="130" width="69" height="72" as="geometry" />
        </mxCell>
        <mxCell id="XioeLFv9S41CHHq93Qgn-12" style="edgeStyle=orthogonalEdgeStyle;rounded=0;orthogonalLoop=1;jettySize=auto;html=1;" edge="1" parent="1" source="XioeLFv9S41CHHq93Qgn-5" target="XioeLFv9S41CHHq93Qgn-11">
          <mxGeometry relative="1" as="geometry" />
        </mxCell>
        <mxCell id="XioeLFv9S41CHHq93Qgn-5" value="" style="outlineConnect=0;dashed=0;verticalLabelPosition=bottom;verticalAlign=top;align=center;html=1;shape=mxgraph.aws3.api_gateway;fillColor=#D9A741;gradientColor=none;" vertex="1" parent="1">
          <mxGeometry x="250" y="119.5" width="76.5" height="93" as="geometry" />
        </mxCell>
        <mxCell id="XioeLFv9S41CHHq93Qgn-9" value="Load Balancer" style="text;html=1;align=center;verticalAlign=middle;whiteSpace=wrap;rounded=0;" vertex="1" parent="1">
          <mxGeometry x="25" y="100" width="60" height="30" as="geometry" />
        </mxCell>
        <mxCell id="XioeLFv9S41CHHq93Qgn-10" value="API&lt;br&gt;Gateway" style="text;html=1;align=center;verticalAlign=middle;whiteSpace=wrap;rounded=0;" vertex="1" parent="1">
          <mxGeometry x="258.25" y="89.5" width="60" height="30" as="geometry" />
        </mxCell>
        <mxCell id="XioeLFv9S41CHHq93Qgn-19" style="edgeStyle=orthogonalEdgeStyle;rounded=0;orthogonalLoop=1;jettySize=auto;html=1;" edge="1" parent="1" source="XioeLFv9S41CHHq93Qgn-11" target="XioeLFv9S41CHHq93Qgn-18">
          <mxGeometry relative="1" as="geometry" />
        </mxCell>
        <mxCell id="XioeLFv9S41CHHq93Qgn-11" value="" style="points=[[0,0],[0.25,0],[0.5,0],[0.75,0],[1,0],[1,0.25],[1,0.5],[1,0.75],[1,1],[0.75,1],[0.5,1],[0.25,1],[0,1],[0,0.75],[0,0.5],[0,0.25]];outlineConnect=0;gradientColor=none;html=1;whiteSpace=wrap;fontSize=12;fontStyle=0;container=0;pointerEvents=0;collapsible=0;recursiveResize=0;shape=mxgraph.aws4.group;grIcon=mxgraph.aws4.group_ec2_instance_contents;strokeColor=#D86613;fillColor=none;verticalAlign=top;align=left;spacingLeft=30;fontColor=#D86613;dashed=0;" vertex="1" parent="1">
          <mxGeometry x="480" y="91.25" width="283.5" height="149.5" as="geometry" />
        </mxCell>
        <mxCell id="XioeLFv9S41CHHq93Qgn-13" value="" style="sketch=0;points=[[0,0,0],[0.25,0,0],[0.5,0,0],[0.75,0,0],[1,0,0],[0,1,0],[0.25,1,0],[0.5,1,0],[0.75,1,0],[1,1,0],[0,0.25,0],[0,0.5,0],[0,0.75,0],[1,0.25,0],[1,0.5,0],[1,0.75,0]];outlineConnect=0;fontColor=#232F3E;fillColor=#ED7100;strokeColor=#ffffff;dashed=0;verticalLabelPosition=bottom;verticalAlign=top;align=center;html=1;fontSize=12;fontStyle=0;aspect=fixed;shape=mxgraph.aws4.resourceIcon;resIcon=mxgraph.aws4.auto_scaling2;" vertex="1" parent="1">
          <mxGeometry x="728.5" y="93.5" width="30" height="30" as="geometry" />
        </mxCell>
        <mxCell id="XioeLFv9S41CHHq93Qgn-16" value="Authentication&lt;div&gt;Authorization&lt;/div&gt;&lt;div&gt;Caching&lt;/div&gt;&lt;div&gt;Transformation&lt;/div&gt;&lt;div&gt;Rate limiting&lt;/div&gt;&lt;div&gt;Reverse proxy&lt;/div&gt;&lt;div&gt;Monitoring&lt;/div&gt;&lt;div&gt;Logging&lt;/div&gt;&lt;div&gt;&lt;br&gt;&lt;/div&gt;" style="text;html=1;align=center;verticalAlign=middle;whiteSpace=wrap;rounded=0;" vertex="1" parent="1">
          <mxGeometry x="501.75" y="161" width="220" height="30" as="geometry" />
        </mxCell>
        <mxCell id="XioeLFv9S41CHHq93Qgn-27" style="edgeStyle=orthogonalEdgeStyle;rounded=0;orthogonalLoop=1;jettySize=auto;html=1;exitX=0.5;exitY=1;exitDx=0;exitDy=0;" edge="1" parent="1" source="XioeLFv9S41CHHq93Qgn-18" target="XioeLFv9S41CHHq93Qgn-26">
          <mxGeometry relative="1" as="geometry" />
        </mxCell>
        <mxCell id="XioeLFv9S41CHHq93Qgn-18" value="Micro-services" style="rounded=0;whiteSpace=wrap;html=1;" vertex="1" parent="1">
          <mxGeometry x="370" y="310" width="120" height="60" as="geometry" />
        </mxCell>
        <mxCell id="XioeLFv9S41CHHq93Qgn-24" style="edgeStyle=orthogonalEdgeStyle;rounded=0;orthogonalLoop=1;jettySize=auto;html=1;exitX=0.5;exitY=1;exitDx=0;exitDy=0;entryX=0.391;entryY=-0.025;entryDx=0;entryDy=0;entryPerimeter=0;" edge="1" parent="1" source="XioeLFv9S41CHHq93Qgn-18" target="XioeLFv9S41CHHq93Qgn-23">
          <mxGeometry relative="1" as="geometry" />
        </mxCell>
        <mxCell id="XioeLFv9S41CHHq93Qgn-25" value="" style="group" vertex="1" connectable="0" parent="1">
          <mxGeometry x="40" y="450" width="220" height="80" as="geometry" />
        </mxCell>
        <mxCell id="XioeLFv9S41CHHq93Qgn-23" value="" style="rounded=0;whiteSpace=wrap;html=1;" vertex="1" parent="XioeLFv9S41CHHq93Qgn-25">
          <mxGeometry width="220" height="80" as="geometry" />
        </mxCell>
        <mxCell id="XioeLFv9S41CHHq93Qgn-20" value="" style="shadow=0;dashed=0;html=1;labelPosition=center;verticalLabelPosition=bottom;verticalAlign=top;align=center;outlineConnect=0;shape=mxgraph.veeam.3d.datastore;" vertex="1" parent="XioeLFv9S41CHHq93Qgn-25">
          <mxGeometry x="30" y="10" width="44" height="60" as="geometry" />
        </mxCell>
        <mxCell id="XioeLFv9S41CHHq93Qgn-21" value="" style="shadow=0;dashed=0;html=1;labelPosition=center;verticalLabelPosition=bottom;verticalAlign=top;align=center;outlineConnect=0;shape=mxgraph.veeam.3d.datastore;" vertex="1" parent="XioeLFv9S41CHHq93Qgn-25">
          <mxGeometry x="86" y="10" width="44" height="60" as="geometry" />
        </mxCell>
        <mxCell id="XioeLFv9S41CHHq93Qgn-22" value="" style="shadow=0;dashed=0;html=1;labelPosition=center;verticalLabelPosition=bottom;verticalAlign=top;align=center;outlineConnect=0;shape=mxgraph.veeam.3d.datastore;" vertex="1" parent="XioeLFv9S41CHHq93Qgn-25">
          <mxGeometry x="140" y="10" width="44" height="60" as="geometry" />
        </mxCell>
        <mxCell id="XioeLFv9S41CHHq93Qgn-31" style="edgeStyle=orthogonalEdgeStyle;rounded=0;orthogonalLoop=1;jettySize=auto;html=1;" edge="1" parent="1" source="XioeLFv9S41CHHq93Qgn-26" target="XioeLFv9S41CHHq93Qgn-30">
          <mxGeometry relative="1" as="geometry" />
        </mxCell>
        <mxCell id="XioeLFv9S41CHHq93Qgn-26" value="" style="outlineConnect=0;dashed=0;verticalLabelPosition=bottom;verticalAlign=top;align=center;html=1;shape=mxgraph.aws3.queue;fillColor=#D9A741;gradientColor=none;" vertex="1" parent="1">
          <mxGeometry x="393.25" y="472" width="73.5" height="48" as="geometry" />
        </mxCell>
        <mxCell id="XioeLFv9S41CHHq93Qgn-28" value="Queue" style="text;html=1;align=center;verticalAlign=middle;whiteSpace=wrap;rounded=0;" vertex="1" parent="1">
          <mxGeometry x="400" y="530" width="60" height="30" as="geometry" />
        </mxCell>
        <mxCell id="XioeLFv9S41CHHq93Qgn-33" style="edgeStyle=orthogonalEdgeStyle;rounded=0;orthogonalLoop=1;jettySize=auto;html=1;" edge="1" parent="1" source="XioeLFv9S41CHHq93Qgn-30" target="XioeLFv9S41CHHq93Qgn-32">
          <mxGeometry relative="1" as="geometry" />
        </mxCell>
        <mxCell id="XioeLFv9S41CHHq93Qgn-30" value="Micro-services" style="rounded=0;whiteSpace=wrap;html=1;" vertex="1" parent="1">
          <mxGeometry x="551.75" y="312" width="120" height="60" as="geometry" />
        </mxCell>
        <mxCell id="XioeLFv9S41CHHq93Qgn-32" value="" style="outlineConnect=0;dashed=0;verticalLabelPosition=bottom;verticalAlign=top;align=center;html=1;shape=mxgraph.aws3.queue;fillColor=#D9A741;gradientColor=none;" vertex="1" parent="1">
          <mxGeometry x="680" y="466" width="73.5" height="48" as="geometry" />
        </mxCell>
        <mxCell id="XioeLFv9S41CHHq93Qgn-34" value="Notification Queue" style="text;html=1;align=center;verticalAlign=middle;whiteSpace=wrap;rounded=0;" vertex="1" parent="1">
          <mxGeometry x="686.75" y="520" width="60" height="30" as="geometry" />
        </mxCell>
        <mxCell id="XioeLFv9S41CHHq93Qgn-35" style="edgeStyle=orthogonalEdgeStyle;rounded=0;orthogonalLoop=1;jettySize=auto;html=1;entryX=0.5;entryY=1;entryDx=0;entryDy=0;entryPerimeter=0;" edge="1" parent="1" source="XioeLFv9S41CHHq93Qgn-34" target="XioeLFv9S41CHHq93Qgn-1">
          <mxGeometry relative="1" as="geometry">
            <Array as="points">
              <mxPoint x="717" y="640" />
              <mxPoint x="-125" y="640" />
            </Array>
          </mxGeometry>
        </mxCell>
      </root>
    </mxGraphModel>
  </diagram>
</mxfile>
